<?xml version="1.0" standalone="no"?>
<!DOCTYPE svg PUBLIC "-//W3C//DTD SVG 20010904//EN"
 "http://www.w3.org/TR/2001/REC-SVG-20010904/DTD/svg10.dtd">
<svg version="1.0" xmlns="http://www.w3.org/2000/svg"
 width="2431.000000pt" height="572.000000pt" viewBox="0 0 2431.000000 572.000000"
 preserveAspectRatio="xMidYMid meet">
<metadata>
Created by potrace 1.16, written by Peter Selinger 2001-2019
</metadata>
<g transform="translate(0.000000,572.000000) scale(0.100000,-0.100000)"
fill="#000000" stroke="none">
<path d="M2187 4773 c-4 -3 -7 -14 -7 -24 0 -11 -11 -19 -35 -23 -21 -4 -35
-13 -35 -21 0 -9 -10 -15 -25 -15 -26 0 -34 -15 -12 -23 6 -2 4 -3 -6 -1 -9 1
-20 -4 -25 -10 -4 -7 -17 -18 -29 -25 -13 -6 -23 -18 -23 -26 0 -8 -9 -15 -20
-15 -15 0 -20 -7 -20 -25 0 -20 -5 -25 -24 -25 -18 0 -26 -6 -28 -22 -2 -13
-11 -22 -23 -23 -36 -3 -65 -16 -65 -30 0 -7 -9 -15 -21 -18 -11 -3 -23 -15
-26 -26 -3 -12 -14 -21 -25 -21 -11 0 -22 -9 -25 -20 -3 -11 -13 -20 -23 -20
-11 0 -22 -12 -29 -31 -6 -17 -14 -28 -19 -25 -13 8 -62 -17 -62 -31 0 -7 -7
-13 -16 -13 -18 0 -44 -23 -44 -39 0 -10 -14 -15 -33 -12 -5 1 -11 -8 -14 -19
-3 -11 -14 -20 -24 -20 -11 0 -21 -9 -25 -24 -3 -15 -15 -27 -30 -30 -15 -4
-24 -14 -24 -25 0 -14 -10 -21 -36 -26 -24 -4 -38 -13 -41 -26 -3 -10 -14 -19
-24 -19 -10 0 -24 -8 -31 -18 -7 -10 -21 -21 -31 -25 -11 -4 -21 -16 -24 -26
-3 -11 -14 -21 -25 -24 -12 -4 -18 -12 -16 -24 2 -13 -4 -19 -24 -21 -16 -2
-28 -8 -28 -13 0 -5 -6 -9 -14 -9 -8 0 -16 -7 -20 -15 -3 -8 -12 -15 -20 -15
-8 0 -21 -8 -28 -18 -7 -10 -21 -21 -31 -25 -9 -4 -21 -17 -26 -29 -5 -13 -17
-23 -27 -23 -12 0 -20 -8 -22 -22 -2 -15 -10 -23 -24 -23 -11 0 -22 -8 -25
-20 -3 -11 -11 -20 -17 -20 -22 0 -66 -25 -66 -37 0 -7 -9 -13 -20 -13 -12 0
-25 -10 -32 -25 -10 -23 -20 -29 -40 -26 -4 0 -10 -10 -14 -24 -4 -16 -13 -25
-26 -25 -11 0 -22 -8 -25 -18 -2 -11 -20 -25 -39 -32 -19 -8 -34 -19 -34 -26
0 -6 -14 -17 -30 -24 -17 -7 -30 -19 -30 -26 0 -8 -9 -14 -20 -14 -11 0 -25
-9 -32 -20 -7 -11 -18 -20 -25 -20 -7 0 -15 -11 -19 -25 -3 -14 -10 -26 -15
-26 -5 -1 -15 -2 -21 -3 -7 0 -14 -11 -16 -23 -2 -15 -10 -23 -23 -23 -22 0
-49 -22 -49 -39 0 -6 -14 -11 -31 -11 -22 0 -32 -5 -36 -19 -3 -11 -14 -21
-25 -24 -11 -3 -22 -15 -25 -26 -3 -12 -9 -22 -14 -22 -5 -1 -15 -2 -21 -3 -7
0 -14 -11 -16 -23 -2 -14 -11 -23 -25 -25 -14 -2 -23 -11 -25 -25 -2 -13 -10
-23 -18 -23 -10 0 -14 -12 -14 -40 l0 -40 700 0 700 0 10 25 c5 14 15 24 22
23 7 -2 14 6 16 17 1 11 13 25 25 30 12 6 23 20 25 32 2 12 11 24 20 26 15 4
15 5 -1 6 -15 1 -16 3 -5 15 9 10 15 11 20 2 4 -6 10 2 14 21 4 22 13 33 30
37 14 4 24 14 24 24 0 9 9 23 20 30 11 7 20 21 20 32 0 12 7 20 18 21 14 0 14
2 -3 9 -19 8 -15 10 18 14 6 0 13 13 15 29 2 15 8 28 13 28 5 1 15 2 22 3 6 0
13 10 15 21 2 11 13 25 25 30 12 6 23 20 25 33 2 12 11 22 20 23 14 0 13 2 -3
9 -20 8 -18 11 8 14 6 0 13 13 15 29 2 15 8 28 13 28 5 1 15 2 22 3 6 0 13 10
15 21 2 11 13 25 25 30 12 6 23 20 25 32 2 12 12 25 22 28 12 4 22 19 26 40 4
21 13 35 25 38 11 3 19 14 19 25 0 13 9 22 25 26 18 5 25 13 25 30 0 15 7 26
19 29 13 3 22 17 26 40 5 26 13 37 29 39 13 2 22 11 24 24 2 12 12 24 23 27
13 3 19 14 19 31 0 16 6 26 15 26 17 0 35 30 35 59 0 13 8 21 23 23 14 2 23
11 25 24 2 12 12 24 23 27 11 3 23 15 26 26 3 12 9 21 13 21 10 0 40 58 40 77
0 7 9 13 20 13 13 0 20 7 20 20 0 11 5 20 11 20 16 0 39 26 39 44 0 9 7 16 17
16 9 0 14 3 10 6 -3 4 0 13 8 21 8 8 15 25 15 39 0 17 5 24 20 24 11 0 24 8
27 18 4 9 15 23 25 30 10 7 18 22 18 33 0 11 7 19 18 20 15 0 15 1 1 7 -14 6
-15 9 -3 20 11 10 14 10 14 0 0 -23 20 15 20 40 0 16 6 22 21 22 12 0 23 8 26
19 2 10 16 24 29 31 27 15 31 44 10 66 -12 11 -66 14 -304 14 -159 0 -292 -3
-295 -7z"/>
<path d="M21540 4770 c0 -5 -7 -10 -15 -10 -9 0 -15 -9 -15 -25 0 -16 6 -25
15 -25 9 0 15 -9 15 -25 0 -18 7 -26 25 -31 18 -4 25 -13 25 -30 0 -17 6 -24
19 -24 13 0 21 -10 25 -34 4 -22 14 -37 26 -41 10 -3 20 -16 22 -28 2 -12 13
-26 26 -32 13 -6 22 -18 22 -32 0 -18 6 -23 24 -23 20 0 24 -6 30 -40 4 -25
12 -40 20 -40 8 0 16 -10 18 -22 2 -13 13 -27 25 -33 12 -5 23 -19 25 -30 2
-11 9 -21 16 -21 6 -1 17 -2 22 -3 6 0 10 -10 10 -22 0 -28 18 -59 34 -59 7 0
16 -13 20 -30 3 -18 12 -30 21 -30 8 0 15 -9 15 -20 0 -12 9 -22 24 -26 16 -4
26 -15 30 -35 3 -16 9 -29 13 -28 5 1 15 1 23 -1 11 -1 9 -4 -5 -10 -16 -7
-17 -9 -3 -9 9 -1 18 -11 20 -23 2 -13 13 -27 25 -33 12 -5 23 -19 25 -30 2
-11 10 -20 18 -20 8 0 16 -10 18 -22 2 -12 14 -33 27 -47 13 -14 25 -33 27
-43 2 -10 13 -22 25 -28 12 -5 23 -19 25 -30 2 -11 9 -21 16 -21 6 -1 16 -2
21 -3 5 0 11 -16 15 -33 5 -23 9 -29 15 -20 7 11 9 11 14 -2 3 -8 1 -17 -6
-20 -9 -3 -9 -5 1 -5 6 -1 12 -8 12 -17 0 -18 23 -44 39 -44 6 0 11 -7 11 -16
0 -8 4 -12 10 -9 6 3 7 -1 4 -9 -4 -11 0 -16 14 -16 14 0 21 -9 26 -32 4 -19
10 -28 14 -22 5 9 10 8 19 -1 10 -11 9 -15 -5 -18 -16 -4 -16 -5 1 -6 10 -1
17 -9 17 -20 0 -11 8 -26 18 -33 10 -7 21 -21 25 -31 4 -11 16 -21 27 -24 11
-3 20 -11 20 -19 0 -23 23 -64 36 -64 7 0 14 -10 16 -22 2 -13 13 -27 26 -33
12 -5 22 -18 22 -27 0 -11 8 -18 20 -18 15 0 20 -7 20 -25 0 -14 5 -25 10 -25
6 0 10 -9 10 -20 0 -11 7 -20 15 -20 8 0 15 -7 15 -16 0 -17 23 -44 38 -44 5
0 12 -9 15 -20 5 -20 14 -20 711 -20 l706 0 0 34 c0 57 -19 96 -46 96 -15 0
-24 6 -24 15 0 8 -7 15 -15 15 -8 0 -15 5 -15 11 0 6 -7 8 -16 5 -10 -4 -18 3
-26 24 -6 18 -17 30 -28 30 -10 0 -20 9 -23 21 -3 12 -10 19 -14 16 -11 -7
-25 3 -39 28 -6 11 -21 21 -33 23 -11 2 -21 10 -21 18 0 16 -38 34 -58 27 -7
-3 -17 8 -23 26 -6 17 -14 30 -17 30 -22 -3 -32 3 -32 21 0 15 -7 20 -24 20
-18 0 -25 6 -28 23 -2 14 -11 23 -25 25 -12 2 -25 12 -28 23 -4 10 -15 19 -27
19 -11 0 -22 8 -25 20 -4 14 -17 22 -44 26 -33 6 -39 10 -39 30 0 17 -6 24
-19 24 -10 0 -21 9 -24 21 -3 11 -14 23 -25 26 -11 2 -25 16 -32 29 -8 13 -19
24 -26 24 -7 0 -18 9 -24 20 -7 14 -21 20 -45 20 -27 0 -34 4 -37 23 -2 14
-11 23 -25 25 -14 2 -23 11 -25 25 -2 12 -9 23 -15 23 -7 1 -17 2 -22 3 -5 0
-11 10 -14 22 -3 11 -14 23 -25 26 -11 3 -22 13 -25 24 -4 14 -14 19 -36 19
-17 0 -31 5 -31 11 0 16 -31 38 -52 39 -9 0 -18 10 -20 23 -2 12 -9 23 -15 23
-7 1 -17 2 -23 3 -5 0 -10 8 -10 17 0 9 -9 18 -20 21 -11 3 -20 10 -20 15 0
15 -27 38 -44 38 -9 0 -16 6 -16 14 0 8 -13 19 -30 25 -16 5 -30 16 -30 24 0
7 -15 19 -34 27 -19 7 -37 21 -39 32 -3 10 -14 18 -25 18 -13 0 -22 9 -26 25
-4 14 -10 24 -14 24 -20 -3 -30 3 -40 26 -7 15 -20 25 -32 25 -11 0 -20 6 -20
13 0 12 -44 37 -66 37 -6 0 -14 9 -17 20 -3 12 -14 20 -25 20 -14 0 -22 8 -24
23 -2 12 -9 23 -15 23 -7 1 -17 2 -22 3 -5 0 -11 10 -14 21 -3 11 -13 23 -24
27 -10 4 -24 15 -31 25 -7 10 -22 18 -33 18 -10 0 -19 7 -19 15 0 8 -7 15 -15
15 -8 0 -15 4 -15 9 0 5 -12 11 -27 13 -21 2 -27 8 -25 21 2 12 -4 21 -17 24
-12 3 -21 10 -21 15 0 12 -26 38 -37 38 -4 0 -14 9 -21 20 -7 11 -21 20 -32
20 -11 0 -20 7 -20 15 0 9 -12 20 -26 25 -34 13 -574 13 -574 0z"/>
<path d="M6853 4724 c-7 -3 -13 -12 -13 -20 0 -8 -9 -14 -20 -14 -11 0 -20 -4
-20 -10 0 -5 -7 -10 -15 -10 -16 0 -35 -30 -35 -55 0 -9 -7 -23 -15 -31 -12
-12 -15 -12 -15 -2 0 10 -3 9 -10 -2 -15 -23 -13 -283 3 -299 7 -9 8 -12 0 -7
-7 4 -9 -1 -6 -15 4 -12 14 -24 25 -26 11 -3 18 -14 18 -29 0 -17 7 -25 24
-30 13 -3 26 -14 29 -25 4 -14 14 -19 41 -19 42 0 88 -19 79 -33 -3 -5 -9 -3
-15 4 -8 11 -9 11 -5 -1 3 -12 27 -16 125 -18 l121 -3 7 26 c5 22 11 25 50 25
30 0 47 5 56 18 7 10 21 21 31 25 10 4 17 17 17 32 0 16 6 25 15 25 28 0 36
50 33 204 -3 148 -3 151 -25 154 -18 3 -23 10 -23 33 0 26 -9 34 -33 30 -5 -1
-6 3 -2 9 3 6 11 7 17 4 7 -4 8 -2 4 4 -4 6 -22 14 -40 18 -21 3 -36 13 -39
24 -4 17 -19 18 -178 19 -96 0 -180 -3 -186 -5z"/>
<path d="M4667 4520 c-13 -18 -27 -20 -198 -22 -181 -3 -184 -3 -187 -25 -3
-21 -9 -22 -90 -25 -79 -3 -88 -5 -97 -25 -8 -20 -17 -23 -67 -23 -47 0 -62
-4 -80 -22 -15 -15 -32 -21 -50 -19 -29 3 -36 -7 -17 -26 7 -7 6 -12 -5 -16
-10 -4 -13 -1 -9 9 3 7 1 14 -5 14 -5 0 -12 -8 -14 -18 -4 -15 -13 -17 -41
-14 -31 4 -38 1 -48 -21 -9 -20 -20 -27 -47 -29 -22 -2 -39 -10 -46 -23 -14
-25 -28 -35 -39 -28 -4 3 -11 -4 -14 -16 -5 -19 -15 -25 -35 -22 -4 0 -10 -10
-14 -23 -4 -18 -15 -26 -41 -31 -22 -4 -37 -13 -40 -25 -3 -10 -15 -20 -27
-22 -11 -2 -25 -13 -31 -25 -5 -12 -19 -26 -32 -32 -13 -6 -23 -17 -23 -26 0
-8 -6 -15 -14 -15 -7 0 -19 -13 -26 -30 -7 -16 -16 -30 -21 -30 -5 0 -9 -7 -9
-15 0 -8 -4 -15 -10 -15 -5 0 -10 -7 -10 -16 0 -22 -27 -48 -33 -31 -2 6 -8 0
-12 -14 -3 -15 -17 -31 -31 -38 -19 -8 -24 -18 -24 -50 0 -33 -4 -40 -24 -45
-21 -5 -25 -13 -28 -49 -2 -29 -8 -42 -18 -42 -10 0 -16 -12 -18 -32 -2 -18
-9 -33 -15 -33 -18 0 -37 -49 -37 -97 0 -24 -4 -43 -10 -43 -5 0 -10 -7 -10
-15 0 -8 -5 -15 -11 -15 -5 0 -7 -4 -4 -10 3 -5 1 -10 -4 -10 -7 0 -11 -24
-11 -58 0 -50 -3 -59 -22 -67 l-23 -10 -3 -393 c-2 -396 1 -432 33 -432 12 0
15 -15 15 -65 0 -60 2 -66 25 -77 21 -9 24 -18 27 -72 3 -52 6 -62 26 -71 17
-8 22 -18 22 -48 0 -30 4 -40 20 -44 15 -4 20 -14 20 -38 0 -23 7 -39 23 -52
12 -10 28 -37 35 -60 7 -24 19 -43 26 -43 8 0 16 -9 19 -21 3 -11 15 -23 26
-26 11 -3 21 -15 23 -27 2 -11 9 -20 16 -18 7 1 17 -9 22 -23 6 -15 17 -25 30
-25 13 0 20 -7 20 -19 0 -11 13 -32 28 -48 16 -15 31 -36 35 -45 3 -9 22 -20
41 -23 25 -5 36 -13 38 -29 2 -13 10 -21 22 -21 10 0 22 -10 27 -22 6 -16 13
-21 25 -16 12 4 15 3 10 -5 -4 -7 -1 -12 7 -12 8 0 17 -9 20 -20 3 -14 17 -21
46 -26 31 -5 41 -11 41 -25 0 -16 8 -19 44 -19 39 0 45 -3 48 -22 3 -20 10
-23 50 -26 39 -3 47 -6 50 -25 2 -18 11 -23 43 -25 31 -2 43 -8 50 -25 8 -19
19 -22 70 -25 43 -2 64 -8 78 -23 15 -16 31 -19 96 -19 72 0 79 -2 84 -21 4
-15 11 -20 22 -15 9 3 13 2 10 -4 -4 -6 133 -9 377 -7 380 2 383 2 392 23 9
19 20 22 109 26 77 4 103 9 112 21 8 11 33 18 75 21 56 5 98 16 57 16 -19 0
-23 15 -6 26 6 3 15 0 20 -7 6 -9 9 -10 9 -2 0 7 18 13 43 15 32 2 44 8 52 26
7 15 19 22 40 23 56 2 60 4 63 27 3 19 10 22 44 22 31 0 41 4 45 20 3 11 14
20 24 20 11 0 19 5 19 10 0 6 7 10 15 10 7 0 18 6 22 14 4 8 19 16 33 18 17 2
26 10 28 26 3 16 10 22 28 22 13 0 24 5 24 10 0 6 6 10 13 10 35 0 37 41 37
685 0 479 -3 637 -12 657 -17 35 -45 39 -311 37 -160 -1 -212 -4 -188 -11 26
-7 31 -12 20 -18 -8 -6 -15 -6 -17 0 -6 16 -34 11 -48 -7 -11 -15 -13 -120
-14 -530 0 -499 -1 -514 -20 -533 -11 -11 -29 -20 -40 -20 -13 0 -22 -9 -26
-25 -5 -19 -13 -25 -34 -25 -53 0 -93 -13 -97 -32 -4 -13 -15 -18 -42 -19 -20
-1 -40 -2 -46 -4 -5 -1 -20 -3 -32 -3 -16 -2 -23 -8 -23 -22 0 -21 -9 -22
-248 -21 -44 0 -70 -4 -67 -9 4 -6 -1 -10 -10 -10 -9 0 -13 5 -10 10 4 7 -56
10 -174 10 -179 0 -180 0 -183 22 -3 25 -2 25 -87 27 -50 1 -61 4 -66 21 -5
15 -19 21 -56 26 -27 4 -52 10 -55 15 -3 5 2 6 10 3 9 -3 16 -2 16 4 0 18 -30
34 -56 29 -19 -3 -29 1 -41 19 -12 18 -24 24 -53 24 -32 0 -39 4 -42 22 -2 13
-9 22 -16 20 -7 -1 -17 9 -22 23 -5 14 -18 28 -27 32 -10 4 -24 15 -31 25 -7
10 -18 18 -23 18 -15 0 -39 26 -31 34 3 4 -4 9 -16 13 -13 3 -22 13 -22 25 0
11 -8 22 -19 25 -11 3 -21 14 -24 25 -3 11 -14 22 -25 25 -13 3 -22 17 -27 40
-4 23 -13 37 -26 40 -11 3 -19 14 -19 27 -1 24 -22 56 -39 56 -6 0 -11 15 -11
35 0 28 -4 35 -20 35 -18 0 -20 7 -20 65 0 49 -4 67 -15 71 -8 4 -15 12 -15
20 0 8 -4 14 -10 14 -6 0 -10 43 -10 109 0 133 -7 172 -32 178 -20 6 -25 43
-5 43 22 0 37 77 37 195 0 79 4 115 11 115 22 0 38 35 39 85 0 39 4 53 20 63
15 9 20 23 20 52 0 22 5 41 10 41 6 1 16 2 23 3 7 0 13 18 15 42 2 32 8 43 23
47 11 3 23 15 26 26 3 12 12 21 20 21 10 0 14 7 10 19 -3 14 -1 18 9 14 8 -3
14 1 14 10 0 8 7 17 14 20 8 3 18 22 21 41 5 25 13 36 29 38 11 2 22 9 22 16
1 6 2 16 3 21 0 5 19 12 41 16 22 4 39 10 39 13 -4 23 4 32 27 32 17 0 28 6
31 20 3 11 9 21 14 21 5 1 15 2 22 3 6 0 13 11 15 23 3 18 11 22 45 25 32 2
44 8 52 25 7 17 19 23 50 25 33 2 41 7 43 26 3 20 9 22 69 22 56 0 66 3 70 20
6 21 17 23 156 20 42 -1 67 3 67 9 0 6 11 11 25 11 16 0 25 6 25 15 0 13 22
15 134 15 126 0 135 -1 141 -20 3 -11 14 -20 24 -20 10 0 33 -3 51 -7 27 -5
32 -3 25 8 -6 11 -5 12 6 2 7 -7 36 -13 65 -13 43 0 53 -3 57 -20 4 -17 14
-20 69 -20 56 0 64 -3 73 -22 8 -18 20 -24 52 -26 34 -3 42 -7 45 -25 2 -12 9
-23 16 -23 6 -1 21 -2 32 -3 11 0 20 -7 20 -14 0 -7 15 -19 34 -27 19 -7 37
-21 39 -32 3 -10 14 -18 25 -18 11 0 22 -9 25 -20 3 -11 13 -23 24 -27 10 -4
25 -16 34 -27 13 -16 29 -20 85 -20 62 -1 70 1 79 22 5 12 16 22 23 22 7 0 17
11 22 24 5 13 18 27 29 31 12 3 21 11 21 17 0 6 -6 6 -15 -2 -11 -9 -15 -9
-15 -1 0 6 13 14 30 17 31 7 57 30 46 41 -4 4 -12 1 -17 -7 -9 -13 -10 -13 -6
0 2 8 17 17 33 20 17 3 33 14 39 27 5 12 17 24 27 26 10 3 18 11 18 19 0 11
-2 11 -9 -1 -5 -8 -11 -9 -15 -3 -3 6 3 14 14 17 18 6 21 14 18 48 -2 35 -7
43 -25 45 -17 3 -23 10 -23 28 0 19 -5 24 -24 24 -18 0 -26 6 -28 23 -2 12 -9
21 -16 19 -7 -1 -17 10 -22 24 -6 14 -19 28 -29 31 -11 3 -21 13 -24 24 -3 10
-13 19 -24 19 -10 0 -23 10 -28 23 -7 16 -20 23 -46 25 -26 2 -40 10 -49 28
-10 19 -21 24 -49 24 -28 0 -39 5 -46 23 -7 16 -20 23 -47 25 -23 2 -38 8 -38
16 0 17 -32 26 -97 26 -46 0 -52 2 -55 23 -3 20 -9 22 -71 24 -69 1 -82 5 -82
26 0 19 -48 24 -230 26 -165 2 -180 3 -192 21 -20 28 -96 28 -116 0z"/>
<path d="M11123 4533 c-20 -3 -33 -10 -33 -19 0 -11 -24 -14 -132 -15 -239 -1
-242 -1 -253 -26 -6 -15 -19 -23 -35 -24 -138 -4 -160 -9 -160 -35 0 -12 -48
-21 -83 -15 -5 1 -11 -8 -14 -19 -4 -16 -14 -20 -44 -20 -32 0 -40 -4 -45 -24
-4 -18 -14 -25 -46 -30 -28 -5 -42 -12 -45 -26 -3 -13 -14 -20 -28 -20 -17 0
-26 -8 -33 -30 -8 -21 -16 -28 -26 -24 -11 4 -19 -2 -26 -20 -5 -14 -15 -25
-22 -24 -7 2 -14 -6 -16 -17 -1 -11 -13 -25 -25 -30 -12 -6 -23 -20 -25 -31
-2 -12 -11 -24 -22 -27 -10 -3 -21 -18 -25 -38 -4 -18 -18 -41 -31 -52 -20
-15 -24 -28 -24 -73 0 -39 -4 -54 -14 -54 -8 0 -16 -6 -19 -14 -3 -8 -6 -137
-7 -286 l-1 -272 23 6 c13 3 17 3 10 0 -6 -3 -10 -10 -7 -15 4 -5 -1 -6 -9 -3
-9 4 -16 1 -16 -6 0 -6 9 -14 20 -17 16 -4 20 -14 20 -49 0 -38 3 -44 25 -50
21 -5 25 -12 25 -40 0 -27 5 -37 24 -46 14 -6 26 -20 28 -32 2 -13 12 -22 26
-24 14 -2 22 -10 22 -24 0 -11 8 -22 19 -25 11 -3 22 -14 24 -25 4 -14 11 -19
22 -14 12 4 19 -3 27 -24 8 -24 16 -30 39 -30 16 0 29 -5 29 -12 0 -13 44 -38
67 -38 7 0 13 -7 13 -16 0 -10 5 -14 16 -10 8 3 13 2 10 -3 -6 -10 26 -21 62
-21 12 0 22 -6 22 -14 0 -16 30 -26 83 -26 31 0 39 -4 47 -25 9 -23 14 -25 80
-25 56 0 70 -3 70 -15 0 -19 44 -37 85 -35 73 4 93 0 98 -20 3 -11 9 -20 14
-19 4 1 45 1 89 0 78 -1 82 -2 88 -26 6 -24 9 -25 95 -25 85 0 90 -1 93 -22 3
-21 9 -23 71 -26 37 -2 67 -7 67 -13 0 -18 27 -39 50 -39 14 0 19 4 14 13 -6
9 -4 9 7 0 7 -7 25 -13 40 -13 18 0 28 -6 32 -20 4 -16 14 -20 51 -20 42 0 46
-2 46 -25 0 -16 6 -25 16 -25 18 0 44 -23 44 -39 0 -6 6 -11 14 -11 8 0 16 -6
19 -14 4 -9 14 -12 29 -9 23 5 23 5 3 -10 -17 -14 -17 -16 -4 -17 9 0 19 -9
22 -20 3 -12 14 -20 26 -20 20 0 21 -4 21 -155 0 -117 -3 -155 -12 -155 -13 0
-38 -44 -38 -67 0 -12 -13 -17 -33 -14 -5 1 -11 -7 -14 -18 -3 -10 -14 -21
-25 -24 -11 -3 -22 -15 -25 -26 -3 -14 -17 -23 -39 -27 -19 -3 -40 -14 -47
-24 -7 -10 -28 -20 -47 -22 -21 -2 -34 -8 -33 -15 2 -7 -4 -10 -12 -7 -9 4
-15 0 -15 -10 0 -16 -49 -22 -132 -16 -15 1 -35 -7 -47 -19 -20 -20 -32 -21
-211 -21 -127 0 -190 4 -190 11 0 5 -4 8 -9 5 -5 -4 -11 -1 -13 6 -4 11 -57
16 -185 17 -27 1 -43 6 -43 14 0 20 -50 37 -110 37 -48 0 -57 3 -65 22 -8 18
-20 24 -50 26 -31 2 -43 8 -50 25 -8 17 -20 23 -51 25 -32 2 -43 8 -47 23 -4
15 -14 19 -45 19 -34 0 -41 3 -44 23 -2 17 -11 23 -35 25 -18 2 -33 7 -33 13
0 5 -8 9 -17 10 -12 1 -10 4 7 9 l25 8 -25 3 c-14 1 -32 2 -40 3 -8 1 -16 11
-18 23 -3 19 -9 22 -60 22 -67 0 -82 -10 -82 -53 0 -20 -7 -36 -20 -44 -14 -9
-20 -23 -20 -51 0 -30 -4 -40 -20 -44 -14 -3 -21 -17 -26 -46 -4 -25 -12 -41
-21 -41 -10 0 -11 -4 -3 -19 14 -27 12 -41 -2 -16 -11 19 -11 19 -19 0 -9 -24
-11 -108 -3 -129 3 -9 14 -16 23 -16 9 0 21 -10 26 -22 6 -13 19 -25 30 -27
11 -2 23 -8 27 -15 5 -7 8 -7 8 3 0 8 9 2 21 -13 11 -14 26 -26 34 -26 7 0 15
-9 18 -20 4 -16 14 -20 50 -20 40 0 46 -3 49 -22 3 -24 5 -25 62 -27 25 -1 35
-6 39 -21 3 -11 14 -21 26 -21 12 -1 26 -3 31 -4 6 -1 19 -3 30 -4 11 0 20 -7
20 -13 0 -22 52 -38 121 -38 37 0 71 -4 74 -10 3 -6 -1 -7 -9 -4 -9 3 -16 1
-16 -5 0 -10 37 -24 56 -20 5 1 37 1 72 0 47 -1 62 -4 62 -16 0 -30 73 -35
457 -33 l378 3 10 23 c9 20 17 22 80 23 98 1 128 6 141 24 7 9 27 15 51 15 32
0 42 5 53 25 12 23 29 31 54 26 25 -5 56 11 56 29 0 15 8 19 37 22 30 2 41 9
51 31 9 18 19 26 28 23 9 -4 18 3 23 17 5 12 17 22 27 22 12 0 20 8 22 23 2
14 10 22 23 22 14 0 19 7 19 25 0 20 5 25 25 25 20 0 25 5 25 24 0 18 6 25 23
28 14 2 23 11 25 26 2 12 9 22 15 22 7 0 6 4 -3 10 -13 8 -13 11 3 27 16 16
17 16 17 -2 0 -17 2 -17 10 -5 5 8 10 25 10 36 0 13 8 24 21 27 12 3 20 13 19
24 -1 10 -2 38 -1 63 1 37 5 47 24 55 22 10 22 13 25 229 2 169 -1 221 -10
228 -10 6 -10 8 0 8 23 0 12 30 -13 36 -23 6 -25 11 -25 65 0 48 -4 61 -20 71
-11 7 -20 18 -20 23 0 21 -25 65 -37 65 -7 0 -13 8 -13 18 -1 20 -23 52 -37
52 -6 0 -13 9 -16 20 -3 12 -14 20 -25 20 -13 0 -22 9 -26 25 -4 16 -13 25
-26 25 -10 0 -21 9 -25 19 -4 13 -19 22 -43 26 -25 4 -41 13 -47 28 -6 12 -19
24 -30 26 -11 2 -24 10 -30 18 -10 13 -36 19 -95 22 -16 1 -29 9 -35 24 -8 18
-19 23 -57 25 -33 2 -48 8 -48 17 0 8 -5 17 -11 21 -11 6 -74 12 -136 14 -13
0 -23 6 -23 14 0 19 -23 26 -88 26 -50 0 -59 3 -67 23 -9 20 -18 22 -97 25
-68 2 -88 6 -88 17 0 15 -67 37 -103 35 -56 -5 -87 1 -87 15 0 17 -59 35 -117
35 -30 0 -43 4 -43 14 0 16 -30 26 -82 26 -27 0 -38 4 -38 15 0 19 -31 35 -69
35 -24 0 -31 4 -31 20 0 13 -9 22 -26 26 -14 4 -37 17 -51 30 -14 13 -34 24
-43 24 -12 0 -20 11 -25 36 -4 23 -13 38 -25 41 -14 4 -20 16 -22 47 -2 31 -8
43 -25 51 -21 9 -23 17 -23 81 0 68 1 72 25 78 22 6 25 12 25 49 0 34 4 44 23
52 12 6 23 20 25 33 2 12 10 22 18 22 8 0 14 7 14 15 0 9 11 20 25 25 14 5 25
16 25 24 0 8 10 16 23 18 12 2 26 13 32 26 7 15 18 22 37 22 34 0 58 9 58 22
0 6 -6 5 -15 -2 -9 -7 -15 -8 -15 -2 0 16 27 22 94 22 57 0 64 2 76 25 l13 25
274 0 c236 0 273 -2 273 -15 0 -8 9 -15 20 -15 11 0 20 -4 20 -10 0 -6 36 -10
89 -10 80 0 89 -2 94 -20 4 -16 14 -20 50 -20 35 0 46 -4 50 -18 4 -19 44 -32
98 -32 22 0 29 -5 29 -20 0 -13 9 -22 27 -26 15 -4 34 -13 41 -21 7 -7 20 -13
28 -13 8 0 14 -4 14 -9 0 -5 28 -9 63 -8 55 2 62 4 65 23 2 12 12 24 23 27 15
4 19 14 19 51 0 34 4 46 15 46 21 0 35 33 35 85 0 28 6 52 15 61 12 12 15 12
15 2 0 -10 3 -9 10 2 21 32 9 174 -14 171 -3 -1 -21 -1 -40 -1 -28 0 -35 4
-38 23 -2 18 -10 23 -45 25 -34 3 -42 7 -47 28 -6 21 -12 24 -50 24 -35 0 -45
4 -49 20 -3 11 -9 20 -14 19 -4 -1 -33 -1 -63 0 -47 1 -57 4 -65 24 -9 20 -18
22 -96 25 -80 3 -87 4 -97 27 l-11 24 -182 1 c-144 0 -184 3 -193 14 -12 16
-74 25 -123 19z"/>
<path d="M8130 3950 l0 -260 -203 0 c-145 0 -206 -3 -215 -12 -17 -17 -17
-419 0 -436 9 -9 70 -12 215 -12 l203 0 0 -743 c0 -760 2 -797 38 -797 8 0 12
-22 12 -76 0 -67 2 -76 20 -81 16 -4 20 -14 20 -44 0 -32 5 -42 25 -51 14 -6
25 -18 25 -27 1 -20 24 -51 39 -51 6 0 11 -9 11 -21 0 -24 22 -49 44 -49 9 0
16 -6 16 -14 0 -13 28 -27 58 -30 7 -1 18 -12 25 -26 10 -20 21 -26 54 -28 29
-2 42 -8 46 -21 3 -14 16 -18 67 -20 59 -2 84 -12 88 -36 1 -6 91 -10 244 -10
239 0 243 0 252 22 9 18 20 22 84 25 55 3 77 8 86 21 7 9 24 18 37 21 13 2 23
9 21 15 -1 6 7 11 18 11 11 0 20 4 20 8 0 4 15 12 33 17 l32 10 0 80 c0 75 -1
80 -22 83 -19 3 -22 11 -25 50 -2 28 -8 47 -15 48 -7 1 -17 2 -23 3 -5 0 -10
25 -10 54 0 80 -11 89 -101 85 -68 -3 -74 -5 -77 -26 -3 -18 -10 -22 -37 -22
-43 0 -65 -9 -65 -26 0 -11 -28 -14 -145 -14 -138 0 -145 1 -145 20 0 14 -7
20 -23 20 -13 0 -26 9 -32 22 -6 13 -18 24 -28 26 -24 5 -57 38 -57 56 0 8 -3
22 -6 30 -5 14 -9 14 -22 4 -12 -10 -14 -10 -8 0 4 6 2 12 -3 12 -8 0 -11 224
-11 735 l0 735 350 0 c335 0 350 1 360 19 15 29 13 414 -2 429 -9 9 -103 12
-360 12 l-348 0 -2 258 -3 257 -277 3 -278 3 0 -261z"/>
<path d="M13030 3950 l0 -260 -215 0 -215 0 0 -230 0 -230 215 0 215 0 0 -795
c0 -793 1 -822 32 -845 4 -3 8 -26 10 -50 2 -35 8 -47 26 -55 16 -7 22 -18 22
-40 1 -31 20 -65 37 -65 6 0 13 -9 16 -20 3 -12 14 -20 26 -20 20 0 25 -9 22
-37 -1 -7 7 -13 19 -13 12 0 20 -7 20 -16 0 -9 13 -21 29 -27 16 -6 32 -19 34
-28 3 -11 19 -19 46 -24 25 -4 45 -14 51 -26 9 -16 22 -19 80 -19 50 0 70 -4
70 -13 0 -28 55 -37 250 -37 234 0 281 5 287 31 5 16 15 19 69 19 51 0 65 4
76 19 8 11 28 21 48 23 25 2 38 10 45 26 5 12 16 22 25 22 19 0 62 50 56 66
-3 8 1 11 10 7 9 -3 14 1 14 13 -1 23 -23 54 -39 54 -6 0 -11 15 -11 33 0 32
-11 59 -24 58 -21 -3 -25 4 -28 52 -2 32 -8 52 -15 53 -33 4 -37 6 -18 14 17
7 17 9 3 9 -13 1 -18 9 -18 31 l0 30 -80 0 c-76 0 -80 -1 -86 -24 -4 -19 -14
-25 -50 -31 -29 -4 -44 -11 -44 -21 0 -14 -17 -16 -160 -16 -102 0 -108 2
-113 22 -4 15 -14 20 -40 20 -29 0 -36 4 -39 22 -2 15 -10 23 -23 23 -12 0
-21 9 -25 25 -4 16 -14 26 -28 28 -18 3 -22 10 -22 42 0 50 -15 90 -35 90 -13
0 -15 79 -15 695 l0 695 348 0 c191 0 353 4 360 8 9 7 12 59 10 228 -3 186 -5
219 -18 220 -8 1 -169 2 -357 2 l-343 2 0 260 0 260 -255 0 -255 0 0 -260z"/>
<path d="M19780 3950 l0 -260 -212 -2 -213 -3 0 -225 0 -225 213 -3 212 -2 0
-768 c0 -786 2 -822 38 -822 8 0 12 -16 12 -47 0 -62 9 -93 26 -93 9 0 14 -11
14 -29 0 -15 10 -39 23 -52 12 -14 28 -37 34 -52 7 -15 19 -27 27 -27 8 0 16
-10 18 -22 2 -14 11 -24 23 -26 11 -2 25 -13 30 -25 6 -12 20 -23 33 -25 12
-2 22 -10 22 -18 0 -8 9 -14 20 -14 11 0 20 -4 20 -10 0 -5 14 -10 30 -10 17
0 30 -4 30 -10 0 -5 7 -10 15 -10 8 0 15 -4 15 -10 0 -6 30 -10 70 -10 62 0
70 -2 70 -19 0 -10 6 -21 13 -24 7 -2 120 -5 251 -6 205 -1 237 1 233 13 -4
10 -1 13 9 9 8 -3 14 1 14 11 0 13 12 16 58 17 31 1 61 1 65 0 5 -1 11 8 14
19 4 14 14 20 34 21 51 2 54 4 54 24 0 15 10 21 41 27 30 6 44 16 53 34 6 15
7 23 1 19 -5 -3 -10 -1 -10 4 0 6 5 11 10 11 6 0 10 10 10 23 0 31 -22 77 -37
77 -7 0 -13 19 -15 48 -2 37 -8 49 -25 57 -17 7 -23 19 -25 50 -2 28 -8 40
-18 40 -9 0 -16 11 -18 27 -3 25 -6 26 -63 26 -65 -1 -109 -15 -109 -35 0 -12
-18 -17 -46 -14 -5 0 -20 -8 -33 -20 -18 -17 -35 -21 -94 -21 -184 1 -184 1
-190 22 -3 11 -9 20 -14 19 -24 -4 -53 2 -53 12 0 16 -31 38 -52 39 -13 0 -18
8 -18 33 -1 34 -19 67 -39 67 -9 0 -17 55 -12 84 5 26 -12 86 -25 86 -12 0
-14 97 -14 650 l0 650 338 2 c185 0 344 1 352 2 13 1 15 33 15 226 0 173 -3
225 -12 226 -7 1 -166 2 -353 3 l-340 1 0 260 0 260 -260 0 -260 0 0 -260z"/>
<path d="M6762 3682 c-10 -7 -12 -267 -10 -1268 l3 -1259 278 -3 277 -2 -2
1267 -3 1268 -265 2 c-146 2 -271 -1 -278 -5z"/>
<path d="M15435 3673 c20 -15 20 -15 -2 -10 -12 3 -24 0 -25 -5 -3 -7 -39 -10
-93 -9 -83 2 -87 1 -74 -15 12 -15 12 -17 0 -9 -9 5 -18 2 -25 -8 -7 -8 -27
-17 -46 -20 -54 -7 -80 -18 -80 -33 0 -10 -14 -14 -50 -14 -45 0 -50 -3 -56
-25 -4 -18 -13 -25 -30 -25 -17 0 -24 -6 -24 -19 0 -16 -8 -20 -42 -23 -33 -2
-45 -8 -53 -25 -5 -12 -17 -24 -27 -26 -27 -7 -26 -129 1 -156 11 -11 21 -30
23 -43 2 -15 11 -24 25 -26 18 -3 22 -11 25 -45 2 -24 8 -43 16 -43 6 -1 17
-2 22 -3 6 0 10 -18 10 -40 0 -53 15 -63 97 -59 59 3 69 6 78 25 5 12 19 23
30 25 12 2 21 12 23 26 3 17 10 22 35 23 18 1 36 1 40 0 5 -1 11 8 14 19 3 11
10 20 17 21 87 7 116 16 116 35 0 15 9 17 88 15 47 -1 53 1 62 24 l10 25 247
-2 c214 -3 248 -5 245 -18 -2 -11 1 -10 12 3 8 10 17 14 20 8 3 -5 0 -11 -6
-14 -24 -8 1 -20 52 -25 40 -4 50 -8 50 -23 0 -10 10 -21 22 -25 13 -4 28 -14
35 -23 9 -11 12 -12 13 -3 0 7 5 10 10 7 6 -4 8 -11 5 -16 -4 -5 1 -9 9 -9 9
0 16 -7 16 -16 0 -8 4 -12 10 -9 6 3 7 -1 4 -9 -4 -11 0 -16 10 -16 10 0 16
-8 16 -21 0 -12 8 -23 19 -26 14 -4 21 -15 23 -42 2 -26 9 -39 26 -46 21 -9
22 -15 22 -132 l0 -122 -411 -3 c-376 -3 -412 -4 -423 -20 -11 -15 -32 -18
-148 -19 -132 -1 -136 -1 -148 -24 -11 -21 -22 -25 -74 -27 -52 -3 -62 -6 -71
-25 -7 -17 -19 -23 -50 -25 -30 -2 -42 -8 -50 -25 -5 -13 -18 -23 -27 -23 -10
0 -18 -4 -18 -10 0 -5 -7 -10 -15 -10 -8 0 -15 -4 -15 -9 0 -5 -13 -14 -30
-20 -16 -5 -30 -17 -30 -26 0 -8 -11 -20 -24 -25 -18 -6 -27 -20 -31 -44 -5
-22 -14 -36 -26 -39 -14 -4 -19 -14 -19 -41 0 -20 -5 -36 -11 -36 -26 0 -39
-30 -39 -94 0 -51 -3 -66 -15 -66 -26 0 -34 -35 -34 -141 0 -132 6 -170 30
-176 16 -5 19 -15 19 -67 0 -65 16 -116 38 -116 7 0 12 -13 12 -30 0 -24 4
-30 17 -28 11 2 19 -5 21 -17 7 -40 25 -75 38 -75 8 0 19 -11 24 -25 5 -14 16
-25 25 -25 8 0 15 -7 15 -16 0 -10 6 -14 14 -11 10 4 13 1 9 -9 -4 -10 3 -14
30 -14 29 0 36 -4 39 -22 2 -17 11 -24 31 -26 15 -2 27 -10 27 -17 0 -20 14
-26 68 -30 26 -2 50 -4 53 -4 4 -1 9 -10 12 -21 5 -18 14 -20 80 -20 68 0 75
-2 80 -21 5 -17 11 -20 31 -17 14 3 23 1 20 -3 -3 -5 116 -8 263 -6 267 2 268
2 278 25 8 18 18 22 55 23 70 1 101 7 119 23 9 8 34 16 56 18 30 2 42 9 50 25
6 15 22 24 48 28 21 4 36 9 33 12 -8 8 17 29 43 38 12 3 26 18 32 31 5 14 14
22 19 19 6 -3 14 4 19 17 7 16 10 -12 10 -95 l1 -118 258 3 257 3 3 837 c1
529 -1 846 -8 862 -5 14 -16 26 -25 26 -12 0 -15 17 -16 93 -1 94 -8 139 -21
138 -5 -1 -12 -1 -17 -1 -6 0 -11 24 -13 53 -2 32 -8 52 -15 53 -7 1 -17 2
-23 3 -5 0 -10 16 -10 35 0 43 -9 66 -25 66 -7 0 -15 9 -18 20 -3 12 -14 20
-26 20 -12 0 -21 6 -21 13 0 23 -25 67 -37 67 -7 0 -13 5 -13 10 0 6 -11 10
-25 10 -18 0 -25 5 -25 20 0 12 -7 20 -18 20 -9 0 -22 10 -27 23 -6 12 -20 23
-31 25 -12 2 -24 11 -27 21 -4 18 -45 31 -98 31 -19 0 -29 5 -29 15 0 8 -7 15
-16 15 -8 0 -12 5 -9 10 4 6 -18 10 -58 10 -56 0 -65 3 -70 20 -5 19 -15 20
-419 19 -378 0 -411 -1 -393 -16z m965 -1604 c0 -160 0 -161 -25 -181 -18 -14
-25 -29 -25 -54 0 -27 -4 -34 -20 -34 -13 0 -20 -7 -20 -19 0 -10 -9 -21 -21
-24 -11 -3 -23 -15 -26 -26 -3 -11 -15 -21 -27 -23 -13 -2 -22 -11 -24 -25 -3
-17 -10 -23 -28 -23 -13 0 -24 -4 -24 -10 0 -5 -7 -10 -15 -10 -8 0 -15 -7
-15 -15 0 -11 -11 -15 -40 -15 -28 0 -47 -7 -62 -22 -20 -20 -31 -22 -103 -19
-44 1 -77 0 -73 -4 3 -4 -1 -15 -10 -26 -14 -16 -30 -19 -99 -19 -67 0 -83 3
-83 15 0 8 -9 15 -19 15 -11 0 -23 5 -26 10 -3 6 -33 10 -65 10 -49 0 -61 3
-70 20 -8 15 -21 20 -50 20 -30 0 -40 4 -40 16 0 9 -8 18 -18 21 -10 2 -23 18
-29 34 -6 16 -18 29 -26 29 -8 0 -17 9 -20 21 -3 11 -15 23 -26 26 -20 5 -21
12 -21 149 l0 144 25 0 c18 0 25 5 25 19 0 10 9 21 21 24 11 3 23 14 26 25 3
13 17 22 40 27 23 4 37 13 40 26 5 19 33 24 107 19 18 -1 26 2 22 9 -4 6 -1 9
7 5 8 -3 17 2 20 10 6 14 54 16 412 16 l405 0 0 -161z"/>
<path d="M17736 3683 c-3 -4 -6 -575 -6 -1270 l0 -1263 260 0 260 0 0 729 0
729 21 5 c12 3 18 10 14 16 -3 6 -1 11 4 11 7 0 11 24 11 60 0 36 4 60 11 60
5 0 7 4 4 10 -3 5 0 7 9 4 11 -4 17 4 22 32 4 20 15 45 25 55 11 11 19 33 19
49 0 23 4 30 20 30 12 0 22 9 26 24 3 15 14 26 27 28 14 2 23 11 25 25 2 14
11 23 25 25 14 2 23 11 25 26 3 17 10 22 33 23 49 2 52 3 59 24 5 15 14 19 42
17 22 -2 39 2 47 12 8 9 19 16 26 16 8 0 15 4 17 9 2 6 83 11 185 13 112 2
186 7 193 14 7 7 9 90 8 250 l-3 239 -195 2 c-108 1 -209 -2 -225 -6 -22 -7
-25 -10 -10 -11 l20 -1 -20 -9 c-11 -5 -37 -9 -58 -9 -28 -1 -36 -4 -31 -13 5
-9 2 -9 -9 1 -11 9 -17 10 -17 2 0 -6 -6 -11 -14 -11 -8 0 -21 -6 -28 -14 -8
-7 -34 -17 -57 -21 -30 -5 -45 -13 -48 -26 -3 -10 -15 -19 -27 -21 -13 -2 -22
-11 -24 -25 -4 -24 -9 -26 -54 -23 -18 1 -28 -5 -32 -17 -3 -10 -16 -23 -28
-28 -14 -6 -25 -22 -29 -40 -3 -16 -7 33 -10 110 -2 77 -8 146 -12 153 -7 10
-64 12 -252 12 -134 -1 -246 -4 -249 -7z"/>
<path d="M17 2743 c-14 -13 -7 -74 8 -79 8 -4 15 -15 15 -25 0 -11 9 -21 24
-25 13 -3 26 -14 29 -25 3 -11 14 -19 25 -19 13 0 22 -8 24 -22 2 -11 11 -22
21 -24 11 -1 20 -4 20 -6 16 -32 29 -44 51 -46 14 -2 26 -8 26 -13 0 -5 7 -9
15 -9 8 0 14 -6 13 -12 -2 -7 7 -14 20 -16 14 -2 22 -10 22 -23 0 -11 6 -19
13 -18 28 3 37 -2 37 -22 0 -12 8 -23 20 -26 11 -3 20 -10 20 -15 0 -15 27
-38 44 -38 9 0 16 -7 16 -16 0 -8 13 -20 30 -25 16 -6 30 -15 30 -20 0 -5 7
-9 15 -9 8 0 15 -4 15 -10 0 -5 9 -10 20 -10 13 0 20 -7 20 -20 0 -12 9 -22
24 -26 13 -3 26 -14 29 -25 3 -10 13 -22 24 -26 10 -4 24 -15 31 -25 7 -10 22
-18 33 -18 10 0 19 -7 19 -15 0 -17 30 -35 59 -35 13 0 21 -8 23 -22 2 -13 9
-24 16 -24 6 -1 16 -2 21 -3 5 0 12 -13 15 -27 6 -22 9 -24 23 -12 12 9 15 9
9 1 -4 -7 -3 -13 2 -13 5 0 12 -9 15 -20 3 -11 13 -20 24 -20 10 0 23 -10 28
-22 6 -13 20 -24 33 -26 12 -2 22 -9 22 -17 0 -11 26 -25 55 -29 21 -3 34 -17
28 -32 -4 -10 2 -17 16 -21 11 -3 21 -11 21 -19 0 -7 10 -16 23 -19 12 -4 27
-16 32 -28 6 -12 20 -23 32 -25 12 -2 25 -12 28 -22 4 -12 19 -22 40 -26 21
-4 35 -13 38 -25 3 -11 14 -19 25 -19 14 0 22 -8 24 -22 2 -15 10 -23 22 -23
10 0 22 -10 27 -23 5 -12 17 -25 26 -29 10 -4 24 -15 31 -25 7 -10 18 -18 24
-18 6 0 21 -11 34 -25 13 -14 34 -25 48 -25 18 0 25 -6 28 -22 2 -15 11 -24
26 -26 14 -2 22 -10 22 -23 0 -11 9 -21 24 -25 13 -3 26 -15 29 -26 3 -11 14
-22 25 -25 11 -3 22 -13 25 -24 4 -15 14 -19 45 -19 34 0 41 -3 44 -22 2 -15
11 -24 25 -26 13 -2 23 -12 25 -25 2 -12 9 -21 17 -19 7 1 15 -7 18 -18 3 -11
16 -23 28 -26 12 -3 27 -16 34 -30 6 -13 19 -24 30 -24 10 0 21 -9 24 -19 3
-13 17 -22 41 -26 20 -4 36 -13 36 -21 0 -30 41 -34 311 -34 281 1 309 5 309
43 0 20 -22 47 -39 47 -5 0 -11 10 -13 23 -2 14 -11 23 -24 25 -15 2 -24 12
-28 33 -3 16 -9 29 -13 28 -5 -1 -15 -1 -23 1 -11 1 -9 4 5 10 15 7 16 9 4 9
-10 1 -19 13 -22 31 -4 18 -13 30 -22 30 -8 0 -15 9 -15 20 0 13 -9 22 -25 26
-16 4 -25 13 -25 26 0 10 -11 30 -24 43 -14 13 -26 32 -28 42 -2 10 -13 22
-25 28 -12 5 -23 19 -25 30 -2 11 -10 20 -18 20 -8 0 -16 9 -18 19 -5 24 -26
46 -44 46 -10 0 -9 3 2 10 9 6 10 10 3 10 -6 0 -13 10 -15 23 -2 12 -13 26
-25 32 -12 5 -24 20 -28 32 -3 13 -9 22 -13 22 -22 -4 -30 4 -36 34 -4 18 -10
27 -14 21 -5 -9 -10 -8 -19 1 -10 11 -9 15 5 18 16 4 16 5 0 6 -11 1 -18 9
-18 20 0 11 -8 26 -19 33 -10 7 -21 23 -25 36 -4 12 -15 22 -25 22 -13 0 -21
10 -25 33 -4 18 -10 27 -14 21 -5 -9 -10 -8 -19 1 -10 11 -9 15 5 18 15 4 15
5 0 6 -9 0 -18 11 -20 24 -2 12 -13 26 -25 32 -13 5 -23 18 -23 27 0 11 -8 18
-20 18 -13 0 -20 7 -20 20 0 29 -21 70 -37 70 -7 0 -13 7 -13 16 0 18 -23 44
-39 44 -6 0 -11 9 -11 20 0 14 -7 20 -24 20 -20 0 -24 6 -30 40 -3 21 -12 43
-19 47 -6 4 -18 20 -26 36 -8 15 -20 27 -27 27 -6 0 -14 9 -17 20 -3 12 -14
20 -26 20 -14 0 -21 6 -21 20 0 29 -21 70 -37 70 -7 0 -13 9 -13 21 0 12 -8
23 -19 26 -11 3 -21 15 -23 27 -2 13 -11 22 -24 24 -16 2 -24 13 -29 39 -4 23
-13 37 -26 40 -12 3 -19 14 -19 29 0 17 -7 25 -25 30 -18 4 -25 13 -25 30 0
17 -6 24 -20 24 -13 0 -20 7 -20 19 0 10 -7 22 -16 25 -21 8 -1379 8 -1387 -1z"/>
<path d="M22876 2743 c-3 -3 -6 -14 -6 -22 0 -9 -10 -21 -22 -26 -13 -6 -24
-18 -26 -28 -2 -10 -14 -29 -27 -43 -13 -14 -25 -35 -27 -47 -2 -12 -10 -22
-18 -22 -8 0 -16 -9 -18 -20 -2 -11 -13 -25 -25 -30 -12 -6 -23 -20 -25 -32
-2 -12 -12 -25 -22 -28 -12 -4 -22 -19 -26 -40 -4 -24 -12 -35 -30 -39 -15 -4
-24 -14 -24 -25 0 -10 -9 -21 -20 -24 -14 -3 -20 -14 -20 -31 0 -16 -6 -26
-15 -26 -17 0 -35 -30 -35 -59 0 -13 -8 -21 -22 -23 -14 -2 -24 -11 -26 -23
-2 -11 -13 -25 -25 -30 -12 -6 -23 -20 -25 -32 -2 -13 -10 -23 -18 -23 -8 0
-16 -15 -20 -40 -6 -34 -10 -40 -30 -40 -19 0 -24 -5 -24 -24 0 -16 -7 -26
-21 -29 -11 -3 -23 -15 -26 -26 -3 -12 -12 -21 -20 -21 -8 0 -12 -4 -9 -9 3
-4 -1 -17 -9 -27 -8 -10 -15 -27 -15 -36 0 -11 -8 -18 -20 -18 -13 0 -20 -7
-20 -20 0 -11 -5 -20 -11 -20 -16 0 -39 -26 -39 -44 0 -9 -6 -16 -13 -16 -16
0 -37 -41 -37 -70 0 -13 -7 -20 -20 -20 -11 0 -24 -8 -27 -17 -4 -10 -15 -24
-25 -31 -10 -7 -18 -22 -18 -33 0 -11 -7 -19 -17 -20 -16 0 -16 -1 -2 -7 14
-6 15 -9 3 -20 -11 -10 -14 -10 -14 0 0 23 -20 -15 -20 -39 0 -17 -6 -23 -21
-23 -12 0 -23 -8 -26 -18 -2 -10 -14 -22 -26 -27 -12 -6 -24 -19 -26 -30 -2
-11 -8 -23 -15 -27 -8 -6 -8 -8 1 -8 7 0 10 -7 6 -16 -5 -13 -7 -13 -14 -2 -6
9 -10 3 -15 -19 -4 -18 -10 -34 -15 -34 -5 -1 -15 -2 -21 -3 -7 0 -14 -10 -16
-21 -2 -11 -13 -25 -25 -30 -12 -6 -23 -20 -25 -32 -2 -13 -10 -23 -18 -23 -8
0 -14 -1 -14 -2 -2 -23 -32 -83 -42 -83 -7 0 -14 -9 -16 -20 -2 -11 -13 -25
-25 -30 -13 -6 -23 -21 -25 -37 -2 -16 -9 -28 -18 -28 -8 0 -14 -10 -14 -25 0
-16 6 -25 15 -25 8 0 15 -4 15 -10 0 -6 100 -10 280 -10 180 0 280 4 280 10 0
6 7 10 15 10 9 0 18 7 21 15 4 8 15 15 25 15 11 0 24 11 30 24 6 13 20 27 31
29 11 3 22 15 25 26 3 12 14 21 24 21 12 0 19 7 19 20 0 11 6 20 13 20 24 0
66 25 71 42 2 10 13 18 24 18 12 0 23 9 27 20 4 11 15 20 27 20 11 0 22 8 25
19 3 11 14 21 25 24 11 3 22 15 25 26 3 12 9 22 14 22 5 1 15 2 22 3 6 0 13
11 15 24 3 16 10 22 28 22 13 0 24 5 24 10 0 6 7 10 15 10 8 0 15 7 15 15 0 8
9 15 20 15 11 0 23 7 27 15 3 9 18 22 34 31 16 8 29 21 29 28 0 8 11 17 25 20
16 4 25 13 25 26 0 13 7 20 20 20 15 0 20 7 20 25 0 23 4 25 41 25 32 0 42 4
46 20 3 12 14 20 26 20 11 0 18 3 15 6 -8 7 23 38 45 47 9 3 17 16 17 27 0 15
7 20 24 20 18 0 25 6 28 23 2 14 9 21 19 19 9 -1 28 9 42 22 15 13 34 26 43
28 14 2 26 17 41 46 0 2 9 5 20 6 10 2 19 13 21 24 2 14 11 22 24 22 11 0 22
8 25 19 3 11 14 21 25 24 11 3 22 14 25 25 3 13 17 22 39 26 18 4 39 15 46 25
7 9 21 20 31 24 11 4 21 16 24 26 3 11 16 22 29 25 13 4 24 13 24 20 0 8 9 16
21 19 13 3 19 12 17 24 -2 13 4 19 25 21 15 2 27 8 27 13 0 5 7 9 15 9 8 0 15
7 15 15 0 10 10 15 26 15 24 0 25 2 13 17 -12 15 -12 16 4 10 9 -3 17 -2 17 3
0 6 9 10 20 10 13 0 22 9 26 25 3 14 10 26 15 26 5 1 15 2 22 3 6 0 13 11 15
23 2 14 11 23 25 25 14 2 23 11 25 24 2 17 12 23 43 28 25 4 39 12 39 21 0 8
7 15 16 15 17 0 44 23 44 38 0 5 9 12 21 15 11 3 23 15 26 26 3 11 15 21 27
23 13 2 22 11 24 26 2 14 10 22 23 22 10 0 19 5 19 10 0 6 7 10 15 10 8 0 15
4 15 9 0 5 13 14 29 19 23 8 31 19 36 45 4 19 5 45 3 58 l-3 24 -701 2 c-386
2 -704 0 -708 -4z"/>
</g>
</svg>
